<?xml version="1.0" encoding="UTF-8" standalone="no"?>
<!-- Generator: Adobe Illustrator 9.0, SVG Export Plug-In  -->

<svg
   xmlns:dc="http://purl.org/dc/elements/1.1/"
   xmlns:cc="http://creativecommons.org/ns#"
   xmlns:rdf="http://www.w3.org/1999/02/22-rdf-syntax-ns#"
   xmlns:svg="http://www.w3.org/2000/svg"
   xmlns="http://www.w3.org/2000/svg"
   xmlns:sodipodi="http://sodipodi.sourceforge.net/DTD/sodipodi-0.dtd"
   xmlns:inkscape="http://www.inkscape.org/namespaces/inkscape"
   width="541.41699pt"
   height="541.41602pt"
   viewBox="0 0 541.417 541.416"
   xml:space="preserve"
   id="svg2242"
   sodipodi:version="0.32"
   inkscape:version="0.92.1 r15371"
   sodipodi:docname="wood-block-classic.svg"
   inkscape:output_extension="org.inkscape.output.svg.inkscape"
   version="1.1"
   style="display:inline"><title
     id="title3711">WoodBlock Classic</title><metadata
     id="metadata2286"><rdf:RDF><cc:Work
         rdf:about=""><dc:format>image/svg+xml</dc:format><dc:type
           rdf:resource="http://purl.org/dc/dcmitype/StillImage" /><dc:title>WoodBlock Classic</dc:title><dc:date>10/27/2015</dc:date><dc:creator><cc:Agent><dc:title>Arthur K. Barnes</dc:title></cc:Agent></dc:creator></cc:Work></rdf:RDF></metadata><defs
     id="defs2284"><inkscape:perspective
       sodipodi:type="inkscape:persp3d"
       inkscape:vp_x="0 : 338.38501 : 1"
       inkscape:vp_y="0 : 1000 : 0"
       inkscape:vp_z="676.77124 : 338.38501 : 1"
       inkscape:persp3d-origin="338.38562 : 225.59001 : 1"
       id="perspective37556" /><inkscape:perspective
       sodipodi:type="inkscape:persp3d"
       inkscape:vp_x="0 : 338.38501 : 1"
       inkscape:vp_y="0 : 1000 : 0"
       inkscape:vp_z="676.77124 : 338.38501 : 1"
       inkscape:persp3d-origin="338.38562 : 225.59001 : 1"
       id="perspective16301" /><inkscape:perspective
       sodipodi:type="inkscape:persp3d"
       inkscape:vp_x="0 : 270.7085 : 1"
       inkscape:vp_y="0 : 1000 : 0"
       inkscape:vp_z="541.41699 : 270.7085 : 1"
       inkscape:persp3d-origin="270.7085 : 180.47233 : 1"
       id="perspective12409" /><inkscape:perspective
       sodipodi:type="inkscape:persp3d"
       inkscape:vp_x="0 : 0.5 : 1"
       inkscape:vp_y="0 : 1000 : 0"
       inkscape:vp_z="1 : 0.5 : 1"
       inkscape:persp3d-origin="0.5 : 0.33333333 : 1"
       id="perspective9337" /><inkscape:perspective
       sodipodi:type="inkscape:persp3d"
       inkscape:vp_x="0 : 0.5 : 1"
       inkscape:vp_y="0 : 1000 : 0"
       inkscape:vp_z="1 : 0.5 : 1"
       inkscape:persp3d-origin="0.5 : 0.33333333 : 1"
       id="perspective8562" /><inkscape:perspective
       id="perspective3083"
       inkscape:persp3d-origin="338.38562 : 225.59001 : 1"
       inkscape:vp_z="676.77124 : 338.38501 : 1"
       inkscape:vp_y="0 : 1000 : 0"
       inkscape:vp_x="0 : 338.38501 : 1"
       sodipodi:type="inkscape:persp3d" /><inkscape:perspective
       id="perspective23419"
       inkscape:persp3d-origin="270.7085 : 180.47233 : 1"
       inkscape:vp_z="541.41699 : 270.7085 : 1"
       inkscape:vp_y="0 : 1000 : 0"
       inkscape:vp_x="0 : 270.7085 : 1"
       sodipodi:type="inkscape:persp3d" /><inkscape:perspective
       id="perspective27913"
       inkscape:persp3d-origin="338.38562 : 225.59001 : 1"
       inkscape:vp_z="676.77124 : 338.38501 : 1"
       inkscape:vp_y="0 : 1000 : 0"
       inkscape:vp_x="0 : 338.38501 : 1"
       sodipodi:type="inkscape:persp3d" /><inkscape:perspective
       sodipodi:type="inkscape:persp3d"
       inkscape:vp_x="0 : 338.38501 : 1"
       inkscape:vp_y="0 : 1000 : 0"
       inkscape:vp_z="676.77124 : 338.38501 : 1"
       inkscape:persp3d-origin="338.38562 : 225.59001 : 1"
       id="perspective27913-5" /><inkscape:perspective
       sodipodi:type="inkscape:persp3d"
       inkscape:vp_x="0 : 270.7085 : 1"
       inkscape:vp_y="0 : 1000 : 0"
       inkscape:vp_z="541.41699 : 270.7085 : 1"
       inkscape:persp3d-origin="270.7085 : 180.47233 : 1"
       id="perspective23419-6" /><inkscape:perspective
       sodipodi:type="inkscape:persp3d"
       inkscape:vp_x="0 : 338.38501 : 1"
       inkscape:vp_y="0 : 1000 : 0"
       inkscape:vp_z="676.77124 : 338.38501 : 1"
       inkscape:persp3d-origin="338.38562 : 225.59001 : 1"
       id="perspective3083-3" /><inkscape:perspective
       id="perspective8562-2"
       inkscape:persp3d-origin="0.5 : 0.33333333 : 1"
       inkscape:vp_z="1 : 0.5 : 1"
       inkscape:vp_y="0 : 1000 : 0"
       inkscape:vp_x="0 : 0.5 : 1"
       sodipodi:type="inkscape:persp3d" /><inkscape:perspective
       id="perspective9337-7"
       inkscape:persp3d-origin="0.5 : 0.33333333 : 1"
       inkscape:vp_z="1 : 0.5 : 1"
       inkscape:vp_y="0 : 1000 : 0"
       inkscape:vp_x="0 : 0.5 : 1"
       sodipodi:type="inkscape:persp3d" /><inkscape:perspective
       id="perspective12409-1"
       inkscape:persp3d-origin="270.7085 : 180.47233 : 1"
       inkscape:vp_z="541.41699 : 270.7085 : 1"
       inkscape:vp_y="0 : 1000 : 0"
       inkscape:vp_x="0 : 270.7085 : 1"
       sodipodi:type="inkscape:persp3d" /><inkscape:perspective
       id="perspective16301-9"
       inkscape:persp3d-origin="338.38562 : 225.59001 : 1"
       inkscape:vp_z="676.77124 : 338.38501 : 1"
       inkscape:vp_y="0 : 1000 : 0"
       inkscape:vp_x="0 : 338.38501 : 1"
       sodipodi:type="inkscape:persp3d" /><inkscape:perspective
       id="perspective37556-9"
       inkscape:persp3d-origin="338.38562 : 225.59001 : 1"
       inkscape:vp_z="676.77124 : 338.38501 : 1"
       inkscape:vp_y="0 : 1000 : 0"
       inkscape:vp_x="0 : 338.38501 : 1"
       sodipodi:type="inkscape:persp3d" /><inkscape:perspective
       id="perspective5074"
       inkscape:persp3d-origin="0.5 : 0.33333333 : 1"
       inkscape:vp_z="1 : 0.5 : 1"
       inkscape:vp_y="0 : 1000 : 0"
       inkscape:vp_x="0 : 0.5 : 1"
       sodipodi:type="inkscape:persp3d" /><inkscape:perspective
       id="perspective5377"
       inkscape:persp3d-origin="0.5 : 0.33333333 : 1"
       inkscape:vp_z="1 : 0.5 : 1"
       inkscape:vp_y="0 : 1000 : 0"
       inkscape:vp_x="0 : 0.5 : 1"
       sodipodi:type="inkscape:persp3d" /><inkscape:perspective
       id="perspective5377-5"
       inkscape:persp3d-origin="0.5 : 0.33333333 : 1"
       inkscape:vp_z="1 : 0.5 : 1"
       inkscape:vp_y="0 : 1000 : 0"
       inkscape:vp_x="0 : 0.5 : 1"
       sodipodi:type="inkscape:persp3d" /><inkscape:perspective
       id="perspective6033"
       inkscape:persp3d-origin="0.5 : 0.33333333 : 1"
       inkscape:vp_z="1 : 0.5 : 1"
       inkscape:vp_y="0 : 1000 : 0"
       inkscape:vp_x="0 : 0.5 : 1"
       sodipodi:type="inkscape:persp3d" /><inkscape:perspective
       id="perspective2989"
       inkscape:persp3d-origin="0.5 : 0.33333333 : 1"
       inkscape:vp_z="1 : 0.5 : 1"
       inkscape:vp_y="0 : 1000 : 0"
       inkscape:vp_x="0 : 0.5 : 1"
       sodipodi:type="inkscape:persp3d" /><inkscape:perspective
       id="perspective3039"
       inkscape:persp3d-origin="0.5 : 0.33333333 : 1"
       inkscape:vp_z="1 : 0.5 : 1"
       inkscape:vp_y="0 : 1000 : 0"
       inkscape:vp_x="0 : 0.5 : 1"
       sodipodi:type="inkscape:persp3d" /></defs><sodipodi:namedview
     inkscape:window-height="1019"
     inkscape:window-width="1920"
     inkscape:pageshadow="2"
     inkscape:pageopacity="0.0"
     guidetolerance="10.0"
     gridtolerance="10.0"
     objecttolerance="10.0"
     borderopacity="1.0"
     bordercolor="#666666"
     pagecolor="#ffffff"
     id="base"
     inkscape:zoom="0.92153635"
     inkscape:cx="237.34635"
     inkscape:cy="409.45194"
     inkscape:window-x="0"
     inkscape:window-y="0"
     inkscape:current-layer="svg2242"
     showgrid="false"
     inkscape:window-maximized="1"
     inkscape:document-units="mm"
     units="mm" /><g
     inkscape:groupmode="layer"
     id="layer9"
     inkscape:label="Outlines"><rect
       style="fill:#f6921e;fill-opacity:1;stroke:#0000ff;stroke-width:0.02834646;stroke-linejoin:miter;stroke-miterlimit:4;stroke-dasharray:none;stroke-opacity:1"
       id="rect8570"
       width="176.32727"
       height="295.12729"
       x="36.354332"
       y="209.9344"
       ry="20.010471"><title
         id="title5169">Front Panel</title></rect><path
       style="display:inline;fill:#f6921e;fill-opacity:1;stroke:#0000ff;stroke-width:0.03543307;stroke-linejoin:miter;stroke-miterlimit:4;stroke-dasharray:none;stroke-opacity:1"
       d="M 340.45508 262.41797 C 326.59783 262.41797 315.44336 273.57439 315.44336 287.43164 L 315.44336 606.31445 C 315.44336 620.1717 326.59783 631.32617 340.45508 631.32617 L 385.14844 631.32617 L 385.14844 609.25195 L 466.14844 609.25195 L 466.14844 631.32617 L 510.83984 631.32617 C 524.6971 631.32617 535.85156 620.1717 535.85156 606.31445 L 535.85156 287.43164 C 535.85156 273.57439 524.6971 262.41797 510.83984 262.41797 L 340.45508 262.41797 z "
       transform="scale(0.8,0.8)"
       id="rect8570-1"><title
         id="title5171">Back Panel</title></path><rect
       style="display:inline;fill:#f6921e;fill-opacity:1;stroke:#0000ff;stroke-width:0.02834646;stroke-linejoin:miter;stroke-miterlimit:4;stroke-dasharray:none;stroke-opacity:1"
       id="rect8570-1-1"
       width="176.32727"
       height="295.12729"
       x="-199.40184"
       y="36.014172"
       ry="20.010471"
       transform="matrix(0,-1,1,0,0,0)"><title
         id="title5167">Middle Panel</title></rect></g><g
     inkscape:groupmode="layer"
     id="layer1"
     inkscape:label="Shading"><path
       style="fill:#000000;fill-opacity:1;stroke:#ff0000;stroke-width:0.03543307;stroke-linejoin:miter;stroke-miterlimit:4;stroke-dasharray:none;stroke-opacity:1"
       d="M 155.22266 454.81641 A 67.482152 67.482152 0 0 0 87.740234 522.29883 A 67.482152 67.482152 0 0 0 155.22266 589.78125 A 67.482152 67.482152 0 0 0 222.70508 522.29883 A 67.482152 67.482152 0 0 0 155.22266 454.81641 z M 141.76953 462.25195 L 143.93164 462.25195 L 145.23047 467.13477 L 146.51562 462.25195 L 148.68359 462.25195 L 148.68359 469.41016 L 147.33984 469.41016 L 147.33984 463.77539 L 145.91992 469.41016 L 144.52734 469.41016 L 143.11133 463.77539 L 143.11133 469.41016 L 141.76953 469.41016 L 141.76953 462.25195 z M 150.12891 462.25195 L 155.43555 462.25195 L 155.43555 463.46289 L 151.57422 463.46289 L 151.57422 465.05078 L 155.16797 465.05078 L 155.16797 466.25586 L 151.57422 466.25586 L 151.57422 468.20508 L 155.57227 468.20508 L 155.57227 469.41016 L 150.12891 469.41016 L 150.12891 462.25195 z M 156.82227 462.25195 L 158.22852 462.25195 L 161.1582 467.0332 L 161.1582 462.25195 L 162.50195 462.25195 L 162.50195 469.41016 L 161.05078 469.41016 L 158.16602 464.74219 L 158.16602 469.41016 L 156.82227 469.41016 L 156.82227 462.25195 z M 164.02539 462.25195 L 165.4707 462.25195 L 165.4707 466.12891 C 165.4707 466.74414 165.4876 467.14388 165.52344 467.32617 C 165.58527 467.61914 165.73176 467.85416 165.96289 468.0332 C 166.19727 468.20898 166.51628 468.29688 166.91992 468.29688 C 167.33008 468.29688 167.63932 468.21484 167.84766 468.04883 C 168.05599 467.87955 168.18229 467.67188 168.22461 467.42773 C 168.26694 467.18359 168.28711 466.77929 168.28711 466.21289 L 168.28711 462.25195 L 169.73242 462.25195 L 169.73242 466.01172 C 169.73242 466.87109 169.69332 467.47917 169.61523 467.83398 C 169.53715 468.1888 169.39327 468.48828 169.18164 468.73242 C 168.97331 468.97656 168.69336 469.17188 168.3418 469.31836 C 167.99024 469.46159 167.53125 469.5332 166.96484 469.5332 C 166.28125 469.5332 165.76107 469.45508 165.40625 469.29883 C 165.05468 469.13932 164.77734 468.93424 164.57227 468.68359 C 164.36718 468.42969 164.23112 468.16341 164.16602 467.88672 C 164.07162 467.47656 164.02539 466.8711 164.02539 466.07031 L 164.02539 462.25195 z M 155.22266 497.55469 A 24.743505 24.743505 0 0 1 179.96484 522.29883 A 24.743505 24.743505 0 0 1 155.22266 547.04102 A 24.743505 24.743505 0 0 1 130.47852 522.29883 A 24.743505 24.743505 0 0 1 155.22266 497.55469 z M 214.00977 519.72266 L 215.47461 519.72266 L 215.47461 526.13672 L 214.00977 526.13672 L 214.00977 519.72266 z M 95.931641 519.72461 L 97.396484 519.72461 L 97.396484 526.14062 L 95.931641 526.14062 L 95.931641 519.72461 z M 203.04883 520.12305 L 207.91406 523.00391 L 202.96875 525.74805 L 203.04883 520.12305 z M 103.13281 520.12695 L 103.21094 525.75195 L 98.265625 523.00586 L 103.13281 520.12695 z M 108.35742 520.12695 L 108.4375 525.75195 L 103.49023 523.00586 L 108.35742 520.12695 z M 208.27344 520.12695 L 213.14062 523.00586 L 208.19531 525.75 L 208.27344 520.12695 z M 158.23633 576.13477 L 159.70117 576.13477 L 159.70117 582.54883 L 158.23633 582.54883 L 158.23633 576.13477 z M 161.60352 576.13477 L 163.06836 576.13477 L 163.06836 582.54883 L 161.60352 582.54883 L 161.60352 576.13477 z M 148.27148 576.53711 L 153.13672 579.41602 L 148.19141 582.16016 L 148.27148 576.53711 z "
       id="path8602"
       transform="scale(0.8,0.8)"><title
         id="title5179">Click Wheel Shading</title></path><rect
       style="fill:#000000;fill-opacity:1;stroke:#ff0000;stroke-width:0.02834646;stroke-linejoin:miter;stroke-miterlimit:4;stroke-dasharray:none;stroke-opacity:1"
       id="rect8631"
       width="148.11407"
       height="111.43821"
       x="50.424976"
       y="224.59294"
       ry="3.929522"><title
         id="title5177">Screen Shading</title></rect></g></svg>